Patient4_TMGait_0pt4_03_right_06_EMG.mot
version=1
nRows=40
nColumns=33
inDegrees=no
endheader
time	1LAddLong	2LGlutMax	3LGlutMed	4LIliopsoas	5LSemiMemb	6LBicFemLong	7LRecFem	8LVastMed	9LVastLat	10LGasMed	11LTibAnt	12lTibPost	13LPeroneusLong	14LSol	15LExtDigLong	16LFlexDigLong	17RAddLong	18RGlutMax	19RGlutMed	20RIliopsoas	21RSemiMemb	22RBicFemLong	23RRecFem	24RVastMed	25RVastLat	26RGasMed	27RTibAnt	28RTibPost	29RPeroneusLong	30RSol	31RExtDigLong	32RFlexDigLong
7.7	0.001068	0.011749	-0.035248	-0.002289	-0.071411	0.093842	-0.02533	-0.027466	0.027161	0.002899	0.016174	0.00885	0.06546	0.028687	-0.079651	0.037994	-0.003357	0.026245	0.22598	-0.021362	0.025787	0.018768	-0.17761	0.010376	-0.007019	0.003204	0.007629	0.037689	0.08728	-0.087585	-0.003052	-0.00473
7.701	-0.004425	0.011597	-0.04303	-0.004272	-0.052185	0.063019	0.020905	-0.009003	-0.00061	0.0177	0.006561	0.002289	0.046844	-0.00946	-0.1033	0.017242	0.002747	0.080872	0.22079	-0.010223	0.020294	0.022125	-0.13428	0.015106	0.001984	-0.013428	0.006561	0.027008	0.13062	0.37582	-0.001068	-0.009155
7.702	-0.011749	-0.021362	-0.008087	0.011902	-0.031586	0.024414	0.068207	0.001831	0.13382	0.005798	-0.002747	0.003204	0.04303	-0.008087	-0.048676	0.000458	0.000153	0.019226	0.20752	0.00473	0.021515	0.028839	-0.16251	-0.023651	0.007629	0.000458	-0.007935	0.002441	0.18249	0.90057	-0.007019	-0.002594
7.703	-0.024719	-0.06424	-0.006714	0.018158	-0.022888	-0.10315	0.053711	0.002594	0.18539	0.007935	0.00473	0.000458	0.047913	0.017853	0.006561	-0.00946	0.011597	0.056763	0.19531	0.015411	0.024261	0.033112	-0.15305	-0.022888	0.003662	0.007324	-0.006714	-0.008545	0.031738	0.46845	-0.003204	-0.006409
7.704	-0.018158	-0.031891	-0.020752	0.018616	0.003204	-0.18433	0.031433	-0.004883	0.10239	0.011597	-0.007935	0.006409	0.041046	0.03006	-0.000916	-0.014343	0.003357	0.11841	0.16998	-0.11063	0.023804	0.02594	-0.17624	-0.036621	-0.000916	0.01297	-0.002289	0.010223	0.20233	0.31479	-0.004425	-0.015259
7.705	0.00824	-0.075836	-0.037079	0.012665	-0.017853	-0.19104	-0.074158	-0.01236	-0.066986	0.018463	-0.013885	0.00473	0.049744	0.042725	-0.002594	-0.016632	0.00885	0.079651	0.1712	-0.075684	0.022125	0.010376	-0.20599	-0.023956	0.005188	0.002594	0.032806	0.005646	0.40939	0.19592	-0.00412	-0.008392
7.706	0.015869	-0.081635	-0.028687	-0.000763	0.011902	-0.096893	-0.13977	-0.007172	-0.19562	0.008087	-0.025177	0.002747	0.040283	0.026245	-0.005951	-0.009766	0.009155	0.05722	0.28259	0.052032	0.028076	0.013885	-0.2034	0.002289	-0.002441	-0.008392	0.021057	0.000305	0.12039	0.11765	-0.000458	-0.000458
7.707	0.03067	-0.10666	-0.020599	0.003357	0.039368	0.035706	-0.13275	0.007629	-0.2095	0.003815	-0.021667	0.011749	0.045166	0.029144	0.005035	-0.011444	0.003662	0.017853	0.23025	0.041199	0.027313	0.023956	-0.19608	0.010071	0.019684	-0.00351	0.02182	-0.011444	-0.86426	-0.009155	-0.005188	-0.006561
7.708	-0.009613	-0.11017	-0.02594	-0.003815	0.044861	0.16281	-0.091095	0.00824	-0.1973	0.015564	-0.013275	0.010223	0.041656	0.020447	0.007935	-0.011902	-0.007782	0.033722	0.19196	0.005798	0.022583	0.03006	-0.15381	0.01236	0.006256	-0.009003	0.04364	-0.001678	-0.89279	-0.1326	-0.002899	-0.005798
7.709	-0.021667	-0.075073	-0.018311	0.001984	-0.043793	0.26474	-0.15228	0.005646	-0.17944	0.010223	0.001678	0.011902	0.026855	0.016479	0.010529	-0.011139	-0.016479	0.026855	0.10941	-0.15762	0.038757	0.02533	-0.168	0.005646	-0.008545	-0.005798	0.005188	-0.001984	-0.55161	-0.058441	-0.002136	-0.007629
7.71	-0.017242	-0.018158	0.040436	0.010986	-0.10162	0.3154	-0.13641	0.010681	-0.15961	0.009155	-0.001068	0.003815	0.039825	0.031738	0.008698	-0.00885	-0.002594	-0.01358	0.13733	-0.13641	0.027924	0.019531	-0.16403	0.047455	0.016632	-0.000763	-0.063782	-0.010834	1.0616	0.045776	-0.000305	-0.000916
7.711	0.001221	0.040283	0.043488	0.007172	-0.11093	0.20996	-0.061188	0.023956	-0.048065	0.018921	0.009766	0.00824	0.046844	0.046844	0.016479	-0.000458	-0.001831	-0.019226	0.27985	-0.050964	0.044403	0.039978	-0.19196	0.024567	0.009308	0.003815	-0.050354	-0.010529	0.4277	0.012054	-0.002289	-0.006561
7.712	0.011292	0.032349	0.063477	-0.001221	-0.002594	0.08667	0.036163	0.007477	0.051575	0.016479	-0.003662	0.007782	0.039825	0.0383	0.010223	-0.018158	-0.003967	-0.041809	0.26169	0.10346	0.044861	0.042114	-0.14969	0.015717	0.018158	0.005188	-0.012512	-0.001373	-0.51102	-0.084991	-0.002441	-0.004425
7.713	0.005951	0.067444	0.0737	0.00885	0.04837	0.019989	0.066528	-0.008545	0.07431	0.013275	0.011597	0.004425	0.015106	0.04425	0.013733	-0.007019	-0.008698	0.028076	0.15503	0.13519	0.045013	0.049133	-0.2005	0.022125	0.007477	0.014801	-0.018921	-0.001373	-0.093231	-0.084686	-0.001526	-0.004578
7.714	-0.032654	0.098724	0.071869	0.009003	0.01358	-0.046387	0.10712	0.002747	0.042877	0.014191	0.009766	0.008087	0.027161	0.04776	0.003662	-0.006409	-0.000305	0.054321	0.09552	0.082092	0.055237	0.036621	-0.1651	0.030823	0.010681	0.015106	-0.067749	-0.009918	0.58441	-0.083923	-0.002136	-0.011444
7.715	-0.030518	0.005798	0.10529	0.007477	0.002289	-0.079956	0.066376	-0.003662	0.010986	0.002441	-0.002899	0.001221	0.016632	0.04303	0.005188	-0.014648	0.005341	-0.049896	0.12116	0.060272	0.059662	0.048523	-0.20233	0.025787	-0.001221	0.018311	-0.058746	-0.014038	0.39337	-0.048828	-0.000916	-0.015717
7.716	-0.027771	-0.042419	0.072174	0.006714	-0.031738	-0.10696	0.039825	0.006104	-0.023193	0.014648	-0.001984	0.002289	0.040283	0.032654	0.009613	-0.010071	0.000153	-0.06012	0.12085	0.071411	0.047913	0.028839	-0.21164	0.052948	0.014954	0.015106	-0.02655	-0.00885	-0.008545	0.02594	-0.001678	-0.016479
7.717	-0.028229	-0.11276	0.035706	0.010376	-0.096588	-0.28534	-0.023651	0.005646	-0.00412	0.01297	-0.008545	0.000763	0.039063	0.02243	0.001221	-0.00946	-0.009308	-0.001526	0.17532	0.040741	0.040436	0.03067	-0.20432	0.045929	0.012512	0.024872	0.000305	-0.009613	-0.066833	0.036316	-0.005493	-0.016937
7.718	-0.021057	-0.15274	0.065765	0.000763	-0.15884	-0.33783	-0.1149	0.014038	0.014801	0.014801	-0.006866	0.003967	0.056152	0.029907	0.001221	-0.024719	-0.000305	0.023651	0.18097	-0.018616	0.017853	0.003052	-0.20447	0.037842	-0.008087	0.018311	0.027313	-0.010376	-0.16434	0.052185	-0.002747	-0.024719
7.719	-0.001221	-0.16922	0.053406	0.004425	-0.11368	-0.39536	-0.11398	0.011749	0.047913	0.02121	-0.002594	-0.001678	0.04715	0.033569	0.01236	-0.013733	-0.010834	0.076294	0.18463	-0.035858	0.022278	-0.011444	-0.19302	0.038147	-0.005188	-0.015564	0.023499	-0.002136	0.14984	0.070496	0.000153	-0.029297
7.72	0.019531	-0.17181	0.034943	0.001678	-0.003052	-0.40848	-0.1088	0.000458	0.19196	0.01236	-0.006866	0.013885	0.047607	0.026093	0.038605	-0.014191	0.003204	0.068512	0.1506	-0.045471	0.035706	-0.017242	-0.19333	0.06424	-0.026703	-0.005798	-0.028229	-0.009003	0.40726	0.075531	-0.002289	-0.020752
7.721	0.028687	-0.23407	-0.015106	0.022888	0.046387	-0.2594	-0.12924	-0.007172	0.18143	0.014343	-0.002747	0.00351	0.055542	0.029297	0.010834	-0.016174	0.00412	0.05249	0.15411	-0.02243	0.044708	0.004578	-0.20218	0.010834	-0.024414	-0.051422	-0.070496	0.003204	0.48782	0.029755	-0.001831	-0.017242
7.722	0.024261	-0.20584	-0.025635	0.015411	0.09552	-0.12787	-0.16785	-0.007477	0.090027	0.015717	-0.028534	0.011292	0.030975	0.034943	-0.019226	-0.016785	0.014496	0.091095	0.10117	-0.003204	0.039063	-0.014343	-0.19196	-0.016479	-0.037079	-0.13428	-0.026093	0.00412	0.001068	0.058441	-0.005341	-0.019226
7.723	0.014191	-0.15701	-0.037079	-0.00412	0.11948	-0.080109	-0.11002	-0.002289	0.004578	0.010529	-0.011749	0.012054	0.036621	0.03006	-0.03067	-0.008545	0.016479	0.10742	0.17349	0.01297	0.051422	-0.002136	-0.18173	-0.057526	-0.035858	-0.053101	-0.032654	-0.00885	0.050964	-0.000458	-0.003967	-0.00946
7.724	0.005798	-0.13794	-0.059509	0.005646	0.10269	-0.023499	-0.10132	-0.005493	-0.001526	0.003967	0.013733	0.005798	0.037231	0.023193	-0.026093	-0.009308	0.013885	0.073395	0.18082	-0.032501	0.058441	0.014954	-0.18158	-0.005951	-0.040283	0.023499	-0.066833	-0.021515	0.3624	-0.036011	-0.002136	-0.016479
7.725	-0.011292	-0.13901	-0.019836	-0.003815	0.059509	0.10925	-0.068359	0.003052	-0.056763	0.012207	0.027924	0.023499	0.044556	0.023651	-0.018616	-0.000305	0.015564	0.013275	0.092926	-0.10407	0.03418	0.007324	-0.17685	-0.016937	-0.03418	0.053101	0.024261	0.00946	0.15076	0.04303	-0.001984	-0.020142
7.726	-0.009003	-0.11429	0.013885	0.005798	-0.044861	0.22873	-0.062408	0.014648	-0.11154	0.01236	0.028534	0.010529	0.06012	0.029755	-0.012817	0.001221	0.01358	0.017548	0.12604	-0.23392	0.031433	-0.018768	-0.2002	-0.009613	-0.023651	0.026245	0.040436	0.016479	0.17151	0.06546	-0.002747	-0.023651
7.727	0.005798	-0.079041	0.023041	0.006256	-0.060577	0.23209	-0.019989	0.020599	-0.16205	0.016479	-0.005341	0.011749	0.062408	0.013275	-0.003967	-0.005798	0.001373	-0.012665	0.12054	-0.26413	0.028992	-0.031128	-0.2121	-0.023804	-0.021515	0.013885	0.049438	-0.018158	0.72815	0.012207	-0.007477	-0.019073
7.728	0.036774	-0.025177	0.054016	-0.005798	0.000458	0.21255	0.02121	0.021973	-0.12024	0.019226	-0.02594	0.014801	0.033417	0.014038	0.005798	-0.000153	0.008087	-0.015869	0.01709	-0.18967	0.031586	0.005493	-0.20325	-0.029907	-0.022736	-0.003967	0.046234	-0.023651	0.73852	-0.009766	-0.001678	-0.01709
7.729	0.040436	0.078888	0.042419	-0.00412	0.060883	0.18219	0.007935	0.018158	-0.11078	0.001831	-0.027008	0.010986	0.061798	0.032654	0.017853	0.003204	-0.002747	-0.00885	0.042419	-0.043182	0.022888	0.027771	-0.21439	-0.019684	-0.004883	-0.018921	-0.012207	-0.031891	0.28442	0.086365	-0.00351	-0.01709
7.73	0.02594	0.05722	0.06424	0.008087	0.089417	0.26321	0.000153	0.021667	-0.047302	0.007629	-0.020599	0.019836	0.037537	0.025177	0.015717	0.010223	-0.006714	-0.032501	0.078735	0.1889	0.015564	0.031891	-0.2504	-0.028076	-0.023041	-0.036621	-0.087585	-0.002899	-0.31494	-0.014496	0.010681	-0.019684
7.731	0.016632	0.023041	0.080566	0.021362	0.041656	0.14313	-0.025177	0.026703	0.052795	0.014038	-0.008698	0.018311	0.004425	0.041199	-0.005951	0.009918	-0.02182	-0.045624	0.082245	0.28091	0.008545	0.001831	-0.25207	-0.020905	-0.031891	-0.015564	-0.053558	0.040741	-0.32989	-0.19821	-0.003815	-0.02121
7.732	0.007935	0.057678	0.11505	0.009308	-0.068359	0.18539	-0.11322	0.026245	0.074615	0.004425	0.007019	0.015564	-0.006104	0.008087	-0.020447	0.015869	-0.026093	-0.0737	-0.057983	0.17151	-0.015717	-0.024261	-0.2594	-0.02121	-0.030975	0.020294	-0.004578	0.017395	0.079803	-0.16541	-0.003815	-0.021057
7.733	0.014954	0.097961	0.072327	0	-0.10407	0.20538	-0.2713	0.030212	0.19302	-0.013123	0.006409	0.023193	0.031891	0.069122	-0.028229	0.015869	-0.012054	-0.023651	-0.037079	0.093231	-0.018158	-0.045624	-0.27145	-0.018158	-0.022125	0.014648	0.04303	0.013123	-0.000305	-0.03952	-0.004578	-0.025635
7.734	0.038147	0.13138	0.11231	-0.011902	-0.059509	0.14923	-0.33249	0.032196	0.26413	-0.009918	0.004578	0.020599	0.0354	0.037689	-0.021667	0.009155	-0.001068	-0.11398	0.034485	0.042725	-0.04364	-0.029144	-0.24933	-0.056305	-0.05188	0.008087	0.064087	0.003204	0.28214	0.004883	-0.001221	-0.023041
7.735	0.022736	0.082703	0.10727	-0.007782	0.041351	-0.12634	-0.27405	0.012665	0.103	0.006714	0.005798	0.016479	0.012817	0.059204	-0.021667	0.009003	0.002136	-0.073547	0.046539	-0.005493	0.00351	-0.03006	-0.2655	-0.045319	-0.031738	0.008545	0.11948	-0.010071	0.27206	0.056152	-0.001984	-0.019836
7.736	0.012665	0.1149	0.079193	0.018463	0.060577	-0.43289	-0.039215	-0.014343	-0.054932	0.00946	-0.001984	0.028381	0.014954	0.037537	-0.022278	0.010986	0.002747	-0.13199	0.06897	0.049133	0.077057	-0.037079	-0.24902	-0.012207	-0.035858	0.014038	0.055084	0.00061	-0.28671	0.045624	0.003204	-0.023956
7.737	-0.009308	0.11749	0.084991	0.010834	0.029297	-0.41855	-0.049744	-0.022888	-0.12116	0.016479	-0.001221	0.028076	0.043335	0.043488	-0.012512	0.007935	0.034943	-0.062408	0.086517	0.14389	0.083618	-0.045166	-0.26504	-0.032959	-0.027313	0.019836	-0.066071	-0.009155	-1.0356	-0.027161	-0.003815	-0.011444
7.738	-0.011902	0.14755	0.070343	0.029755	0.036163	-0.36667	-0.10757	-0.041656	-0.10529	0.021515	-0.006561	0.028992	0.056152	0.059357	-0.006256	0.018921	0.028992	-0.037689	0.084991	0.14923	0.087891	-0.005035	-0.2504	-0.021667	-0.024719	0.024719	-0.023804	-0.001831	-1.0229	-0.067444	-0.002441	-0.009155
7.739	-0.001068	0.095978	0.066528	0.02182	0.062866	-0.18524	-0.034332	-0.053101	-0.12863	0.018311	0.000763	0.029755	0.029907	0.057068	-0.000916	0.016632	0.003815	-0.041046	0.072937	0.00824	0.10452	0.057831	-0.2478	-0.00351	-0.015564	0.018768	-0.043182	-0.00473	0.80032	-0.15015	-0.003815	-0.016327
